PathFileType  4	(X/Y/Z) C:\Users\15086\Documents\GitHub\mocap-processing\NordTesting\KristenNordTest\
DataRate	CameraRate	NumFrames	NumMarkers	Units	OrigDataRate	OrigDataStartFrame	OrigNumFrames
  200.0		  200.0		   7		     52		 mm	  200.0	      2162	   2882
Frame#	Time	C7			R_Shoulder			L_Shoulder			Sternum			R_humerus			R_elbow_med			R_elbow_lat			R_forearm			R_wrist_radius			R_wrist_ulna			L_humerus			L_elbow_med			L_elbow_lat			L_forearm			L_wrist_radius			L_wrist_ulna			r.ASIS			r.PSIS			r_IC			L.ASIS			L.PSIS			l_IC			r_thigh1			r_thigh2			r_thigh3			r_thigh4			r_thigh5			r_knee			r_mknee			r_shank_antsup			r_sh2			r_sh3			r_sh4			r_ankle			r_mankle			r_calc			r_5meta			r_toe			L_thigh1			L_thigh2			L_thigh3			L_thigh4			L_knee			L_mknee			L_shank_antsup			L_sh2			L_sh3			L_ankle			L_mankle			L_calc			L_5meta			L_toe			
		X1	Y1	Z1	X2	Y2	Z2	X3	Y3	Z3	X4	Y4	Z4	X5	Y5	Z5	X6	Y6	Z6	X7	Y7	Z7	X8	Y8	Z8	X9	Y9	Z9	X10	Y10	Z10	X11	Y11	Z11	X12	Y12	Z12	X13	Y13	Z13	X14	Y14	Z14	X15	Y15	Z15	X16	Y16	Z16	X17	Y17	Z17	X18	Y18	Z18	X19	Y19	Z19	X20	Y20	Z20	X21	Y21	Z21	X22	Y22	Z22	X23	Y23	Z23	X24	Y24	Z24	X25	Y25	Z25	X26	Y26	Z26	X27	Y27	Z27	X28	Y28	Z28	X29	Y29	Z29	X30	Y30	Z30	X31	Y31	Z31	X32	Y32	Z32	X33	Y33	Z33	X34	Y34	Z34	X35	Y35	Z35	X36	Y36	Z36	X37	Y37	Z37	X38	Y38	Z38	X39	Y39	Z39	X40	Y40	Z40	X41	Y41	Z41	X42	Y42	Z42	X43	Y43	Z43	X44	Y44	Z44	X45	Y45	Z45	X46	Y46	Z46	X47	Y47	Z47	X48	Y48	Z48	X49	Y49	Z49	X50	Y50	Z50	X51	Y51	Z51	X52	Y52	Z52	

2162	10.80500	1195.770	1094.722	-893.249	1324.480	1068.365	-916.173	1065.488	1075.960	-940.843	1199.611	982.198	-976.513	1478.902	1058.191	-820.659	1589.100	974.081	-746.327	1574.897	1049.040	-723.003	1612.008	1102.646	-835.658	1626.150	1110.465	-953.272	1659.429	1140.035	-930.346	873.902	1055.908	-863.507	773.992	960.098	-829.223	771.997	1030.424	-794.741	779.156	1096.057	-930.387	805.251	1111.410	-1024.254	750.067	1125.308	-1016.896	1309.468	630.987	-664.252	1251.639	808.878	-597.599	1339.385	738.878	-685.752	1072.713	624.212	-659.108	1136.997	800.506	-595.056	1045.371	718.026	-684.016	1375.658	467.475	-505.423	1373.231	371.722	-441.515	1385.853	374.556	-387.704	1383.753	529.970	-419.126	1369.803	430.957	-354.998	1374.154	308.433	-352.702	1250.767	317.880	-341.031	1393.324	316.728	-223.735	1379.638	326.047	-104.135	1393.179	393.734	-227.686	1380.757	408.407	-113.489	1365.830	380.864	62.778	1289.124	351.925	52.297	1304.568	438.095	86.723	1388.579	291.274	141.762	1357.634	235.311	121.455	1007.061	455.354	-504.520	1011.176	341.264	-423.003	1003.486	528.253	-408.896	1012.383	415.003	-332.215	1001.210	325.494	-326.826	1126.966	304.172	-320.554	983.430	322.688	-212.527	995.729	412.349	-226.855	1009.961	418.295	-104.803	1018.301	395.727	81.716	1085.409	338.649	57.418	1070.873	438.493	85.442	1010.278	286.630	172.866	1044.516	229.480	147.822
2163	10.81000	1195.657	1094.524	-893.552	1324.248	1067.996	-916.653	1065.410	1075.742	-941.146	1199.509	981.893	-976.724	1478.797	1057.990	-820.967	1588.900	973.689	-746.409	1574.772	1048.912	-723.273	1611.924	1102.431	-836.026	1626.096	1110.170	-953.583	1659.292	1139.736	-930.696	873.892	1055.765	-863.690	773.944	960.109	-829.287	771.967	1030.492	-794.851	779.104	1096.006	-930.552	805.153	1111.307	-1024.438	749.981	1125.192	-1017.091	1309.417	630.837	-664.376	1251.601	808.806	-597.756	1339.365	738.705	-685.922	1072.703	624.125	-659.154	1137.230	799.838	-595.334	1045.324	717.898	-684.100	1375.648	467.390	-505.542	1373.243	371.684	-441.612	1385.846	374.558	-387.772	1383.770	529.935	-419.226	1369.819	430.971	-355.038	1374.081	308.451	-352.730	1250.793	317.892	-341.010	1393.409	316.750	-223.749	1379.691	326.027	-104.157	1393.240	393.730	-227.732	1380.836	408.444	-113.525	1365.956	380.846	62.762	1289.260	351.946	52.296	1304.754	438.089	86.718	1388.735	291.275	141.738	1357.756	235.282	121.443	1007.079	455.238	-504.456	1011.186	341.239	-423.001	1003.538	528.253	-408.901	1012.398	415.002	-332.195	999.829	326.603	-326.711	1126.959	304.166	-320.557	983.448	322.666	-212.503	995.792	412.372	-226.793	1010.068	418.346	-104.753	1018.490	395.752	81.762	1085.526	338.680	57.443	1070.984	438.553	85.397	1010.429	286.652	172.884	1044.642	229.523	147.859
2164	10.81500	1195.595	1094.322	-893.870	1324.297	1067.894	-916.797	1065.337	1075.508	-941.456	1199.361	981.573	-977.009	1478.708	1057.758	-821.320	1588.844	973.514	-746.619	1574.616	1048.834	-723.567	1611.797	1102.244	-836.353	1625.353	1109.904	-953.484	1659.165	1139.434	-931.043	873.879	1055.707	-863.855	773.884	960.149	-829.331	771.965	1030.556	-794.941	779.079	1095.924	-930.710	805.101	1111.135	-1024.599	749.882	1125.091	-1017.220	1309.364	630.683	-664.494	1251.604	808.701	-597.967	1339.341	738.576	-686.097	1071.905	624.673	-659.568	1137.272	799.724	-595.498	1045.276	717.782	-684.183	1375.598	467.312	-505.633	1373.133	371.576	-441.615	1385.827	374.514	-387.842	1383.522	529.775	-419.246	1369.862	430.930	-355.144	1374.092	308.432	-352.739	1250.806	317.895	-341.016	1393.448	316.759	-223.794	1379.776	326.034	-104.153	1393.276	393.722	-227.710	1380.824	408.500	-113.705	1366.068	380.853	62.772	1289.395	351.943	52.320	1304.908	438.190	86.788	1388.869	291.254	141.713	1356.831	234.514	121.772	1007.047	455.256	-504.516	1011.168	341.222	-422.949	1003.552	528.225	-408.914	1012.413	414.992	-332.207	999.841	326.594	-326.689	1126.980	304.148	-320.558	983.524	322.577	-212.648	995.877	412.404	-226.773	1010.154	418.369	-104.738	1018.633	395.747	81.782	1085.667	338.646	57.444	1071.158	438.586	85.461	1010.561	286.649	172.914	1044.783	229.512	147.859
2165	10.82000	1195.542	1093.838	-894.238	1324.205	1067.620	-917.149	1065.298	1075.276	-941.793	1199.239	981.303	-977.300	1478.595	1057.558	-821.633	1588.648	973.418	-746.884	1574.613	1048.680	-723.792	1611.687	1102.041	-836.691	1625.266	1109.933	-953.960	1659.034	1139.178	-931.394	873.810	1055.642	-864.017	773.832	960.164	-829.352	771.979	1030.611	-795.000	779.038	1095.888	-930.836	805.030	1110.989	-1024.761	749.788	1124.936	-1017.398	1309.375	630.562	-664.652	1251.590	808.626	-598.129	1339.302	738.431	-686.289	1071.862	624.553	-659.580	1137.218	799.674	-595.621	1045.229	717.703	-684.255	1375.538	467.267	-505.697	1373.100	371.536	-441.666	1385.813	374.490	-387.867	1383.805	529.844	-419.455	1370.001	430.797	-355.303	1374.090	308.429	-352.748	1250.812	317.895	-341.032	1393.462	316.769	-223.790	1379.824	326.034	-104.199	1393.374	393.707	-227.771	1381.018	408.447	-113.598	1366.188	380.867	62.727	1289.512	351.946	52.324	1305.057	438.197	86.799	1388.993	291.238	141.694	1356.960	234.577	121.737	1007.020	455.217	-504.497	1011.132	341.224	-422.921	1003.540	528.216	-408.927	1012.645	414.850	-332.081	999.874	326.605	-326.673	1127.085	304.014	-320.373	983.544	322.645	-212.556	995.946	412.407	-226.784	1010.271	418.391	-104.716	1018.760	395.798	81.818	1085.775	338.594	57.439	1071.249	438.552	85.490	1010.663	286.704	172.974	1044.810	229.519	147.902
2166	10.82500	1196.210	1093.940	-894.483	1324.151	1067.279	-917.506	1065.222	1075.048	-942.119	1199.150	981.044	-977.568	1478.550	1057.333	-821.948	1588.534	973.309	-747.123	1574.480	1048.560	-724.113	1611.605	1101.847	-837.007	1625.945	1109.474	-954.776	1658.943	1138.872	-931.772	873.772	1055.585	-864.184	773.802	960.193	-829.361	772.021	1030.653	-795.071	779.025	1095.799	-930.930	804.953	1110.766	-1024.926	749.713	1124.822	-1017.498	1309.297	630.460	-664.804	1251.569	808.553	-598.311	1339.251	738.322	-686.504	1071.829	624.433	-659.678	1137.182	799.649	-595.770	1045.192	717.604	-684.332	1375.523	467.169	-505.791	1373.096	371.479	-441.744	1385.794	374.475	-387.929	1383.808	529.807	-419.545	1370.010	430.809	-355.354	1374.140	308.395	-352.766	1250.809	317.880	-341.025	1393.475	316.741	-223.770	1379.897	326.062	-104.193	1393.419	393.711	-227.776	1381.105	408.435	-113.626	1366.289	380.887	62.712	1289.660	351.931	52.331	1305.158	438.207	86.776	1388.822	291.144	141.667	1357.037	234.644	121.706	1007.031	455.174	-504.523	1011.147	341.223	-422.942	1003.594	528.223	-408.953	1012.661	414.878	-332.058	1000.084	326.501	-326.684	1127.104	304.009	-320.353	983.506	322.612	-212.477	995.927	412.431	-226.791	1010.319	418.399	-104.684	1018.858	395.817	81.856	1085.841	338.623	57.426	1071.357	438.555	85.480	1010.751	286.688	172.973	1044.920	229.428	147.903
2167	10.83000	1196.135	1093.734	-894.846	1324.065	1067.032	-917.850	1065.155	1074.822	-942.452	1199.090	980.788	-977.862	1478.425	1057.134	-822.280	1588.419	973.193	-747.359	1574.349	1048.414	-724.449	1611.510	1101.652	-837.327	1625.948	1109.164	-955.102	1658.816	1138.593	-932.164	873.758	1055.565	-864.347	773.778	960.229	-829.341	772.052	1030.722	-795.119	778.994	1095.788	-931.055	804.881	1110.607	-1025.072	749.612	1124.736	-1017.612	1309.265	630.313	-664.931	1251.573	808.446	-598.510	1339.197	738.183	-686.737	1071.811	624.341	-659.752	1137.271	799.524	-595.941	1045.174	717.471	-684.427	1375.476	467.149	-505.912	1373.034	371.452	-441.769	1385.805	374.467	-387.939	1383.783	529.758	-419.644	1370.021	430.806	-355.393	1374.152	308.408	-352.801	1250.806	317.920	-340.981	1393.543	316.760	-223.821	1379.965	326.061	-104.234	1393.457	393.708	-227.826	1381.164	408.450	-113.620	1366.371	380.941	62.688	1289.798	351.938	52.326	1305.285	438.242	86.774	1388.955	291.160	141.653	1358.145	235.343	121.378	1007.057	455.171	-504.545	1011.159	341.190	-422.923	1003.587	528.223	-408.980	1012.477	415.055	-332.208	999.901	326.602	-326.657	1127.015	304.135	-320.589	983.558	322.583	-212.488	997.552	411.888	-226.225	1010.397	418.424	-104.706	1018.923	395.780	81.852	1085.934	338.633	57.412	1071.402	438.512	85.433	1010.814	286.665	172.957	1044.956	229.487	147.909
2168	10.83500	1195.349	1093.112	-895.286	1323.809	1066.675	-918.331	1065.252	1074.556	-942.971	1199.046	980.523	-978.122	1478.299	1056.949	-822.570	1588.318	973.075	-747.601	1574.167	1048.367	-724.744	1611.392	1101.456	-837.680	1624.980	1108.694	-954.962	1658.683	1138.294	-932.553	873.818	1055.445	-864.610	773.725	960.284	-829.321	772.047	1030.829	-795.153	779.001	1095.755	-931.149	804.780	1110.463	-1025.191	749.526	1124.625	-1017.729	1309.240	630.167	-665.045	1251.517	808.384	-598.705	1339.165	738.046	-686.936	1071.751	624.190	-659.832	1137.259	799.424	-596.089	1045.131	717.351	-684.522	1375.461	467.028	-505.963	1373.069	371.420	-441.734	1385.765	374.439	-388.016	1383.801	529.719	-419.720	1370.009	430.792	-355.431	1374.126	308.441	-352.800	1250.797	317.921	-340.976	1393.499	316.709	-223.850	1380.045	326.057	-104.269	1393.509	393.727	-227.860	1381.280	408.428	-113.598	1366.496	380.898	62.659	1289.922	351.982	52.350	1305.428	438.263	86.737	1389.065	291.166	141.640	1357.312	234.576	121.714	1007.068	455.130	-504.551	1011.134	341.186	-422.955	1003.690	527.947	-409.048	1012.728	414.897	-332.096	1001.294	325.523	-326.747	1127.094	303.996	-320.425	983.644	322.667	-212.537	997.052	411.972	-226.624	1010.397	418.411	-104.685	1018.986	395.772	81.839	1085.988	338.672	57.417	1071.430	438.642	85.495	1010.863	286.676	172.957	1045.026	229.487	147.928
